# xmcd CD database file
#
# Track frame offsets:
#	150
#	15662
#	27410
#	42350
#	55522
#	73300
#	87222
#	95697
#	110417
#	122227
#	138465
#	156425
#	171650
#	181607
#	187827
#
# Disc length: 2720 seconds
#
# Revision: 0
# Processed by: cddbd v1.5.1PL0 Copyright (c) Steve Scherf et al.
# Submitted via: CDex 1.51
#
DISCID=ce0a9e0f
DTITLE=Skeleton Key - Fantastic Spikes Through Balloon
DYEAR=1997
DGENRE=New Age
TTITLE0=Watch the Fat Man Swing
TTITLE1=Wide Open
TTITLE2=Nod Off
TTITLE3=All the Things I've Lost
TTITLE4=The Only Useful Word
TTITLE5=The World's Most Famous Undertalker
TTITLE6=Vomit Ascot
TTITLE7=Dear Reader
TTITLE8=Scratch
TTITLE9=Big Teeth
TTITLE10=The Needle Never Ends
TTITLE11=Solitaire
TTITLE12=You Might Drown
TTITLE13=Hoboerotica
TTITLE14=The Spreading Stain
EXTD=YEAR: 1997
EXTT0=
EXTT1=
EXTT2=
EXTT3=
EXTT4=
EXTT5=
EXTT6=
EXTT7=
EXTT8=
EXTT9=
EXTT10=
EXTT11=
EXTT12=
EXTT13=
EXTT14=
PLAYORDER=
